# xmcd CD database file
#
# Track frame offsets:
#	150
#	10667
#	20517
#	30725
#	43457
#	54537
#	63930
#	76247
#	88432
#	99457
#	110812
#	121212
#	130815
#
# Disc length: 1901 seconds
#
# Revision: 11
# Processed by: cddbd v1.5.2PL0 Copyright (c) Steve Scherf et al.
# Submitted via: CDex 1.70beta2
#
DISCID=ad076b0d
DTITLE=The Beatles - 1962-1966 Disc Two
DYEAR=1973
DGENRE=Rock
TTITLE0=Help!
TTITLE1=You've Got To Hide Your Love Away
TTITLE2=We Can Work It Out
TTITLE3=Day Tripper
TTITLE4=Drive My Car
TTITLE5=Norwegian Wood (This Bird Has Flown)
TTITLE6=Nowhere Man
TTITLE7=Michelle
TTITLE8=In My Life
TTITLE9=Girl
TTITLE10=Paperback Writer
TTITLE11=Eleanor Rigby
TTITLE12=Yellow Submarine
EXTD=YEAR: 1973
EXTT0=
EXTT1=
EXTT2=
EXTT3=
EXTT4=
EXTT5=
EXTT6=
EXTT7=
EXTT8=
EXTT9=
EXTT10=
EXTT11=
EXTT12=
PLAYORDER=
